<svg xmlns="http://www.w3.org/2000/svg" viewBox="1013.44 380.329 122.908 112.156">
  <defs>
    <style>
      .cls-1 {
        fill: #95650b;
        stroke: #95650b;
      }

      .cls-2 {
        fill: #fff;
      }
    </style>
  </defs>
  <g id="Group_190" data-name="Group 190" transform="translate(155 91)">
    <g id="Group_8" data-name="Group 8" transform="translate(858.44 289.329)">
      <g id="Group_7" data-name="Group 7" transform="translate(0 0)">
        <g id="Group_4" data-name="Group 4" transform="translate(15.936 27.419)">
          <path id="Path_49" data-name="Path 49" class="cls-1" d="M334.938,260.968c4.649-6.19,14.04-19.656,35.7-20.5,23.872-.07,41.327,19.832,42.2,40.469,5.679,2.586,9.98,16.842-2.97,17.8-.882-.4-6.652,22.249-35.636,25.581s-42.293-25.581-42.293-25.581-9.08,1.127-8.452-8.03S329.2,282.1,329.2,282.1,330.289,267.158,334.938,260.968Z" transform="translate(-323.456 -240.465)"/>
          <path id="Path_55" data-name="Path 55" class="cls-2" d="M686.179,288.579s-1.665,14.3,13.549,13.762,13.756-7.823,14.2-13.762C690.162,288.658,686.179,288.579,686.179,288.579Z" transform="translate(-652.541 -232.216)"/>
        </g>
        <path id="Path_61" data-name="Path 61" d="M542.414,416.344s4.924.75,5.649-3.033.069-4.188-2.024-7.025,0-16.225,0-16.225,6.613.026,9.054-3.644,3.814-3.122,3.831-7.019,2.588-.4,6.348-1.635,5.878-6,7.262-5.914,3.354,4.12,7.511,3.229a16.012,16.012,0,0,0,9.469-6.385c5.575-.154,4.741.836,7.4-.874s4.984-5.45,5.059-3.747-1.05,5.969,1.415,7.777,4.728,1.644,5.2,3.229.036,5.7,2.47,6.972,5.351,1.141,5.431,1.98-1.217,4.2,0,6.03,5.345,3.439,4.632,4.582-3.75,2.631-3.9,5.4.1,2.1-.729,3.184.712,3.36,1.861,5.726.934-1.626,2.771-2.671,1.486-1.031,2.328-6.239,2.689-2.945,5.017-1.98-1.25,8.731,1.1,7.394,5.187-1.19,5.244-3.91,0-3.484,0-3.484,3.2.1,4.359-1.294,2.216-2.548,2.351-4.5-3.864-5.622-4.259-7.009c2.107-3.908,3.211-3.96,1.909-6.624s-4.805-3.316-4.359-4.532,2.1-6.77,0-7.974-5.1-.172-5.244-2.752.211-5.736-2.25-6.413-4.191.2-3.868-1.362,1.363-5.119,0-6.488-5.777-2.557-8.12-1.561,1.388-1.561,0-4.384-.124-7.675-5.939-10.6-8.188-3.409-10.78-2.46-5.429,3.8-6.4.89-2.983-6.774-8.591-6.144S575.057,326.317,573.6,331c-4.6-3.759-4.646-4-6.8-3.139s-1.2,3.412-3.406,2.249-9.228-1.735-11.477-.656-5.893,2.518-6.653,5.222,2.1,5.38.773,5.423-5.522-.123-7.156,1.034-8.041,3.743-8.5,7.985a12.732,12.732,0,0,0,2.163,9.393c-4.9.368-7.489.941-7.921,2.486s-2.239,2.025-1.445,5.137,4.886,4.363,3.943,5.72-5.988.968-7.4,4.944-1.789,8.678.724,10.639,6.365,2.588,4.178,3.347-6.053,3.408-4.9,5.994,2.868,5.59,4.9,4.778,3.526-1.138,3.321,0-2.039,4.448,0,6.36,3.4,4.292,5.579,3,2.038-3.63,2.7-1.951-1.238,4.724.892,6.076A11.241,11.241,0,0,0,542.414,416.344Z" transform="translate(-518.614 -324.787)"/>
      </g>
      <g id="incriÌvel" transform="translate(15.936 26.875)">
        <path id="Path_21" data-name="Path 21" d="M32.186,59.115a.553.553,0,0,1-.586-.586V43.886a.586.586,0,1,1,1.171,0V58.529A.752.752,0,0,1,32.186,59.115Z" transform="translate(-5.242 -8.508)"/>
        <path id="Path_22" data-name="Path 22" d="M67.986,59.115a.553.553,0,0,1-.586-.586V43.886a.586.586,0,0,1,1.171,0V58.529A.628.628,0,0,1,67.986,59.115Z" transform="translate(0.895 -8.508)"/>
        <path id="Path_23" data-name="Path 23" d="M28.786,35.682a.778.778,0,0,1-.586-.469.642.642,0,0,1,.469-.7L36.634,33.1c.351-.117.586.117.7.469a.642.642,0,0,1-.469.7l-8.083,1.406Z" transform="translate(-5.825 -10.261)"/>
        <path id="Path_24" data-name="Path 24" d="M72.534,35.846h-.117l-7.849-1.874A.6.6,0,1,1,64.8,32.8l7.849,1.874a.642.642,0,0,1,.469.7A.6.6,0,0,1,72.534,35.846Z" transform="translate(0.33 -10.308)"/>
        <path id="Path_25" data-name="Path 25" d="M66.2,62.671H38.086a.586.586,0,1,1,0-1.171H66.2a.553.553,0,0,1,.586.586A.628.628,0,0,1,66.2,62.671Z" transform="translate(-4.231 -5.388)"/>
        <path id="Path_26" data-name="Path 26" d="M52.143,76.629c-12.3,0-14.643-4.92-14.643-14.643a.586.586,0,1,1,1.171,0c0,9.254,1.991,13.472,13.472,13.472s13.472-4.1,13.472-13.354a.586.586,0,1,1,1.171,0C66.786,71.709,64.443,76.629,52.143,76.629Z" transform="translate(-4.231 -5.405)"/>
        <path id="Path_27" data-name="Path 27" d="M57.012,98.881A42.684,42.684,0,0,1,17.886,73.227c-6.56-.117-8.786-2.46-8.786-9.372,0-5.506,1.523-8.083,5.272-8.9A42.7,42.7,0,0,1,57.012,13.6c23.078,0,42.055,18.509,42.641,41.235,3.749.82,5.272,3.4,5.272,8.9,0,6.794-2.226,9.137-8.786,9.372A42.6,42.6,0,0,1,57.012,98.881ZM18.94,72.524A41.419,41.419,0,0,0,95.2,72.407a.569.569,0,0,1,.7-.351c5.389,0,7.849-1.289,7.849-8.2,0-5.857-1.757-7.38-4.686-7.849a.536.536,0,0,1-.469-.586,41.537,41.537,0,0,0-83.056,0,.778.778,0,0,1-.469.586c-3.046.586-4.686,1.991-4.686,7.849,0,6.912,2.46,8.083,7.849,8.2h.351A1.617,1.617,0,0,1,18.94,72.524Z" transform="translate(-9.1 -13.6)"/>
      </g>
    </g>
  </g>
</svg>
