<svg xmlns="http://www.w3.org/2000/svg" viewBox="584.93 378.559 122.908 113.927">
  <defs>
    <style>
      .cls-1 {
        fill: #95650b;
        stroke: #95650b;
      }

      .cls-2 {
        fill: #fff;
      }
    </style>
  </defs>
  <g id="Group_188" data-name="Group 188" transform="translate(155 91)">
    <g id="Group_187" data-name="Group 187">
      <g id="Group_12" data-name="Group 12" transform="translate(429.93 287.559)">
        <g id="Group_3" data-name="Group 3" transform="translate(15.936 28.646)">
          <path id="Path_47" data-name="Path 47" class="cls-1" d="M334.938,260.968c4.649-6.19,14.04-19.656,35.7-20.5,23.872-.07,41.327,19.832,42.2,40.469,5.679,2.586,9.98,16.842-2.97,17.8-.882-.4-6.652,22.249-35.636,25.581s-42.293-25.581-42.293-25.581-9.08,1.127-8.452-8.03S329.2,282.1,329.2,282.1,330.289,267.158,334.938,260.968Z" transform="translate(-323.039 -239.92)"/>
          <path id="Path_53" data-name="Path 53" class="cls-2" d="M340.012,276.4s1.783,7.285,7.576,6.87,6.239-6.87,6.239-6.87Z" transform="translate(-320.2 -233.759)"/>
          <path id="Path_54" data-name="Path 54" class="cls-2" d="M340.012,276.4s1.783,7.285,7.576,6.87,6.239-6.87,6.239-6.87Z" transform="translate(-278.028 -233.759)"/>
          <g id="devagar" transform="translate(0 0)">
            <path id="Path_11" data-name="Path 11" d="M33.18,57.466a7.424,7.424,0,0,1-7.38-7.38.586.586,0,0,1,1.171,0,6.209,6.209,0,1,0,12.417,0,.586.586,0,1,1,1.171,0A7.583,7.583,0,0,1,33.18,57.466Z" transform="translate(-6.237 -7.445)"/>
            <path id="Path_12" data-name="Path 12" d="M36.769,39.771H28.686a.586.586,0,0,1,0-1.171h8.083a.586.586,0,1,1,0,1.171Z" transform="translate(-5.843 -9.314)"/>
            <path id="Path_13" data-name="Path 13" d="M72.669,39.771H64.586a.586.586,0,1,1,0-1.171h8.083a.586.586,0,1,1,0,1.171Z" transform="translate(0.312 -9.314)"/>
            <path id="Path_14" data-name="Path 14" d="M56.666,62.371H45.186a.586.586,0,1,1,0-1.171h11.48a.586.586,0,1,1,0,1.171Z" transform="translate(-3.014 -5.439)"/>
            <path id="Path_15" data-name="Path 15" d="M57.012,98.881A42.684,42.684,0,0,1,17.886,73.227c-6.56-.117-8.786-2.46-8.786-9.372,0-5.506,1.523-8.083,5.272-8.9A42.7,42.7,0,0,1,57.012,13.6c23.078,0,42.055,18.509,42.641,41.235,3.749.82,5.272,3.4,5.272,8.9,0,6.794-2.226,9.137-8.786,9.372A42.6,42.6,0,0,1,57.012,98.881ZM18.94,72.524A41.419,41.419,0,0,0,95.2,72.407a.569.569,0,0,1,.7-.351c5.389,0,7.849-1.289,7.849-8.2,0-5.857-1.757-7.38-4.686-7.849a.536.536,0,0,1-.469-.586,41.537,41.537,0,0,0-83.056,0,.778.778,0,0,1-.469.586c-3.046.586-4.686,1.991-4.686,7.849,0,6.912,2.46,8.083,7.849,8.2h.351A1.617,1.617,0,0,1,18.94,72.524Z" transform="translate(-9.1 -13.6)"/>
            <path id="Path_16" data-name="Path 16" d="M39.857,50.671H26.386a.586.586,0,1,1,0-1.171H39.857a.586.586,0,0,1,0,1.171Z" transform="translate(-6.237 -7.445)"/>
            <path id="Path_17" data-name="Path 17" d="M30.1,50a2.343,2.343,0,1,0,4.686,0Z" transform="translate(-5.5 -7.359)"/>
            <path id="Path_18" data-name="Path 18" d="M68.98,57.466a7.424,7.424,0,0,1-7.38-7.38.586.586,0,0,1,1.171,0,6.209,6.209,0,1,0,12.417,0,.586.586,0,1,1,1.171,0A7.425,7.425,0,0,1,68.98,57.466Z" transform="translate(-0.099 -7.445)"/>
            <path id="Path_19" data-name="Path 19" d="M75.757,50.671H62.286a.586.586,0,0,1,0-1.171H75.757a.586.586,0,1,1,0,1.171Z" transform="translate(-0.082 -7.445)"/>
            <path id="Path_20" data-name="Path 20" d="M65.9,50a2.343,2.343,0,1,0,4.686,0Z" transform="translate(0.638 -7.359)"/>
          </g>
        </g>
        <path id="Path_58" data-name="Path 58" d="M542.414,416.344s4.924.75,5.649-3.033.069-4.188-2.024-7.025,0-16.225,0-16.225,6.613.026,9.054-3.644,3.814-3.122,3.831-7.019,2.588-.4,6.348-1.635,5.878-6,7.262-5.914,3.354,4.12,7.511,3.229a16.012,16.012,0,0,0,9.469-6.385c5.575-.154,4.741.836,7.4-.874s4.984-5.45,5.059-3.747-1.05,5.969,1.415,7.777,4.728,1.644,5.2,3.229.036,5.7,2.47,6.972,5.351,1.141,5.431,1.98-1.217,4.2,0,6.03,5.345,3.439,4.632,4.582-3.75,2.631-3.9,5.4.1,2.1-.729,3.184.712,3.36,1.861,5.726.934-1.626,2.771-2.671,1.486-1.031,2.328-6.239,2.689-2.945,5.017-1.98-1.25,8.731,1.1,7.394,5.187-1.19,5.244-3.91,0-3.484,0-3.484,3.2.1,4.359-1.294,2.216-2.548,2.351-4.5-3.864-5.622-4.259-7.009c2.107-3.908,3.211-3.96,1.909-6.624s-4.805-3.316-4.359-4.532,2.1-6.77,0-7.974-5.1-.172-5.244-2.752.211-5.736-2.25-6.413-4.191.2-3.868-1.362,1.363-5.119,0-6.488-5.777-2.557-8.12-1.561,1.388-1.561,0-4.384-.124-7.675-5.939-10.6-8.188-3.409-10.78-2.46-5.429,3.8-6.4.89-2.983-6.774-8.591-6.144S575.057,326.317,573.6,331c-4.6-3.759-4.646-4-6.8-3.139s-1.2,3.412-3.406,2.249-9.228-1.735-11.477-.656-5.893,2.518-6.653,5.222,2.1,5.38.773,5.423-5.522-.123-7.156,1.034-8.041,3.743-8.5,7.985a12.732,12.732,0,0,0,2.163,9.393c-4.9.368-7.489.941-7.921,2.486s-2.239,2.025-1.445,5.137,4.886,4.363,3.943,5.72-5.988.968-7.4,4.944-1.789,8.678.724,10.639,6.365,2.588,4.178,3.347-6.053,3.408-4.9,5.994,2.868,5.59,4.9,4.778,3.526-1.138,3.321,0-2.039,4.448,0,6.36,3.4,4.292,5.579,3,2.038-3.63,2.7-1.951-1.238,4.724.892,6.076A11.241,11.241,0,0,0,542.414,416.344Z" transform="translate(-518.614 -324.787)"/>
      </g>
    </g>
  </g>
</svg>
