<svg xmlns="http://www.w3.org/2000/svg" xmlns:xlink="http://www.w3.org/1999/xlink" version="1.1" x="0px" y="0px" viewBox="0 0 100 125" enable-background="new 0 0 100 100" xml:space="preserve"><path fill="#000000" d="M32.1,56.3c-3.4,0-6.3-2.8-6.3-6.3s2.8-6.3,6.3-6.3s6.3,2.8,6.3,6.3S35.5,56.3,32.1,56.3z M32.1,44.8  c-2.9,0-5.3,2.4-5.3,5.3s2.4,5.3,5.3,5.3s5.3-2.4,5.3-5.3S35,44.8,32.1,44.8z"/><path fill="#000000" d="M50,86.4c-14.5,0-27.6-8.6-33.4-21.9c-5.6-0.1-7.5-2.1-7.5-8c0-4.7,1.3-6.9,4.5-7.6  C14.1,29.4,30.3,13.6,50,13.6s35.9,15.8,36.4,35.2c3.2,0.7,4.5,2.9,4.5,7.6c0,5.8-1.9,7.8-7.5,8C77.6,77.8,64.5,86.4,50,86.4z   M17.5,63.9C23,76.9,35.8,85.4,50,85.4c14.3,0,27.1-8.5,32.6-21.6c0.1-0.2,0.3-0.4,0.6-0.3c4.6,0,6.7-1.1,6.7-7c0-5-1.5-6.3-4-6.7  c-0.2,0-0.4-0.2-0.4-0.5C85.1,30.2,69.2,14.6,50,14.6S14.9,30.2,14.6,49.3c0,0.2-0.2,0.4-0.4,0.5c-2.6,0.5-4,1.7-4,6.7  c0,5.9,2.1,6.9,6.7,7c0.1,0,0.2,0,0.3,0C17.3,63.6,17.4,63.7,17.5,63.9z"/><path fill="#000000" d="M37.8,50.5H26.3c-0.3,0-0.5-0.2-0.5-0.5s0.2-0.5,0.5-0.5h11.5c0.3,0,0.5,0.2,0.5,0.5S38.1,50.5,37.8,50.5z"/><path fill="#000000" d="M30.1,50c0,1.1,0.9,2,2,2c1.1,0,2-0.9,2-2H30.1z"/><path fill="#000000" d="M52.2,62.3h-5.1c-1,0-3.2,0-3.2-2.2c0-1.5,0.6-4.8,5.7-4.8c5.1,0,5.7,3.4,5.7,4.8  C55.4,62.3,53.2,62.3,52.2,62.3z M49.7,56.3c-3.9,0-4.7,2.1-4.7,3.8c0,0.8,0.3,1.2,2.2,1.2h5.1c1.8,0,2.2-0.4,2.2-1.2  C54.4,58.3,53.6,56.3,49.7,56.3z"/><path fill="#000000" d="M28.7,41c-0.2,0-0.4-0.2-0.5-0.4c0-0.3,0.1-0.5,0.4-0.6l6.8-1.2c0.3-0.1,0.5,0.1,0.6,0.4  c0,0.3-0.1,0.5-0.4,0.6L28.7,41C28.7,41,28.7,41,28.7,41z"/><path fill="#000000" d="M71.3,41.2c0,0-0.1,0-0.1,0l-6.7-1.6c-0.3-0.1-0.4-0.3-0.4-0.6c0.1-0.3,0.3-0.4,0.6-0.4l6.7,1.6  c0.3,0.1,0.4,0.3,0.4,0.6C71.7,41,71.5,41.2,71.3,41.2z"/><path fill="#000000" d="M67.9,56.3c-3.4,0-6.3-2.8-6.3-6.3s2.8-6.3,6.3-6.3s6.3,2.8,6.3,6.3S71.4,56.3,67.9,56.3z M67.9,44.8  c-2.9,0-5.3,2.4-5.3,5.3s2.4,5.3,5.3,5.3s5.3-2.4,5.3-5.3S70.8,44.8,67.9,44.8z"/><path fill="#000000" d="M73.7,50.5H62.2c-0.3,0-0.5-0.2-0.5-0.5s0.2-0.5,0.5-0.5h11.5c0.3,0,0.5,0.2,0.5,0.5S74,50.5,73.7,50.5z"/><path fill="#000000" d="M65.9,50c0,1.1,0.9,2,2,2s2-0.9,2-2H65.9z"/><text x="0" y="115" fill="#000000" font-size="5px" font-weight="bold" font-family="'Helvetica Neue', Helvetica, Arial-Unicode, Arial, Sans-serif">Created by eivven</text><text x="0" y="120" fill="#000000" font-size="5px" font-weight="bold" font-family="'Helvetica Neue', Helvetica, Arial-Unicode, Arial, Sans-serif">from the Noun Project</text></svg>