<svg xmlns="http://www.w3.org/2000/svg" xmlns:xlink="http://www.w3.org/1999/xlink" version="1.1" x="0px" y="0px" viewBox="0 0 100 125" enable-background="new 0 0 100 100" xml:space="preserve"><path fill="#000000" d="M32.1,56.3c-3.4,0-6.3-2.8-6.3-6.3c0-0.3,0.2-0.5,0.5-0.5s0.5,0.2,0.5,0.5c0,2.9,2.4,5.3,5.3,5.3  s5.3-2.4,5.3-5.3c0-0.3,0.2-0.5,0.5-0.5s0.5,0.2,0.5,0.5C38.3,53.4,35.5,56.3,32.1,56.3z"/><path fill="#000000" d="M35.5,39.6h-6.9c-0.3,0-0.5-0.2-0.5-0.5s0.2-0.5,0.5-0.5h6.9c0.3,0,0.5,0.2,0.5,0.5S35.8,39.6,35.5,39.6z"/><path fill="#000000" d="M71.4,39.6h-6.9c-0.3,0-0.5-0.2-0.5-0.5s0.2-0.5,0.5-0.5h6.9c0.3,0,0.5,0.2,0.5,0.5S71.7,39.6,71.4,39.6z"/><path fill="#000000" d="M54.9,62.2h-9.8c-0.3,0-0.5-0.2-0.5-0.5s0.2-0.5,0.5-0.5h9.8c0.3,0,0.5,0.2,0.5,0.5S55.2,62.2,54.9,62.2z"/><path fill="#000000" d="M50,86.4c-14.5,0-27.6-8.6-33.4-21.9c-5.6-0.1-7.5-2.1-7.5-8c0-4.7,1.3-6.9,4.5-7.6  C14.1,29.4,30.3,13.6,50,13.6s35.9,15.8,36.4,35.2c3.2,0.7,4.5,2.9,4.5,7.6c0,5.8-1.9,7.8-7.5,8C77.6,77.8,64.5,86.4,50,86.4z   M17.5,63.9C23,76.9,35.8,85.4,50,85.4c14.3,0,27.1-8.5,32.6-21.6c0.1-0.2,0.3-0.4,0.6-0.3c4.6,0,6.7-1.1,6.7-7c0-5-1.5-6.3-4-6.7  c-0.2,0-0.4-0.2-0.4-0.5C85.1,30.2,69.2,14.6,50,14.6S14.9,30.2,14.6,49.3c0,0.2-0.2,0.4-0.4,0.5c-2.6,0.5-4,1.7-4,6.7  c0,5.9,2.1,6.9,6.7,7c0.1,0,0.2,0,0.3,0C17.3,63.6,17.4,63.7,17.5,63.9z"/><path fill="#000000" d="M37.8,50.5H26.3c-0.3,0-0.5-0.2-0.5-0.5s0.2-0.5,0.5-0.5h11.5c0.3,0,0.5,0.2,0.5,0.5S38.1,50.5,37.8,50.5z"/><path fill="#000000" d="M30.1,50c0,1.1,0.9,2,2,2c1.1,0,2-0.9,2-2H30.1z"/><path fill="#000000" d="M67.9,56.3c-3.4,0-6.3-2.8-6.3-6.3c0-0.3,0.2-0.5,0.5-0.5s0.5,0.2,0.5,0.5c0,2.9,2.4,5.3,5.3,5.3  s5.3-2.4,5.3-5.3c0-0.3,0.2-0.5,0.5-0.5s0.5,0.2,0.5,0.5C74.2,53.4,71.4,56.3,67.9,56.3z"/><path fill="#000000" d="M73.7,50.5H62.2c-0.3,0-0.5-0.2-0.5-0.5s0.2-0.5,0.5-0.5h11.5c0.3,0,0.5,0.2,0.5,0.5S74,50.5,73.7,50.5z"/><path fill="#000000" d="M65.9,50c0,1.1,0.9,2,2,2c1.1,0,2-0.9,2-2H65.9z"/><text x="0" y="115" fill="#000000" font-size="5px" font-weight="bold" font-family="'Helvetica Neue', Helvetica, Arial-Unicode, Arial, Sans-serif">Created by eivven</text><text x="0" y="120" fill="#000000" font-size="5px" font-weight="bold" font-family="'Helvetica Neue', Helvetica, Arial-Unicode, Arial, Sans-serif">from the Noun Project</text></svg>