<svg xmlns="http://www.w3.org/2000/svg" xmlns:xlink="http://www.w3.org/1999/xlink" version="1.1" x="0px" y="0px" viewBox="0 0 100 125" enable-background="new 0 0 100 100" xml:space="preserve"><path fill="#000000" d="M32.1,56.8c-0.3,0-0.5-0.2-0.5-0.5V43.8c0-0.3,0.2-0.5,0.5-0.5s0.5,0.2,0.5,0.5v12.5  C32.6,56.5,32.3,56.8,32.1,56.8z"/><path fill="#000000" d="M67.9,56.8c-0.3,0-0.5-0.2-0.5-0.5V43.8c0-0.3,0.2-0.5,0.5-0.5s0.5,0.2,0.5,0.5v12.5  C68.4,56.5,68.2,56.8,67.9,56.8z"/><path fill="#000000" d="M28.7,35.3c-0.2,0-0.4-0.2-0.5-0.4c0-0.3,0.1-0.5,0.4-0.6l6.8-1.2c0.3-0.1,0.5,0.1,0.6,0.4  c0,0.3-0.1,0.5-0.4,0.6L28.7,35.3C28.7,35.3,28.7,35.3,28.7,35.3z"/><path fill="#000000" d="M71.3,35.4c0,0-0.1,0-0.1,0l-6.7-1.6c-0.3-0.1-0.4-0.3-0.4-0.6c0.1-0.3,0.3-0.4,0.6-0.4l6.7,1.6  c0.3,0.1,0.4,0.3,0.4,0.6C71.7,35.3,71.5,35.4,71.3,35.4z"/><path fill="#000000" d="M62,62.5H38c-0.3,0-0.5-0.2-0.5-0.5s0.2-0.5,0.5-0.5H62c0.3,0,0.5,0.2,0.5,0.5S62.2,62.5,62,62.5z"/><path fill="#000000" d="M50,74.4c-10.5,0-12.5-4.2-12.5-12.5c0-0.3,0.2-0.5,0.5-0.5s0.5,0.2,0.5,0.5c0,7.9,1.7,11.5,11.5,11.5  S61.5,69.9,61.5,62c0-0.3,0.2-0.5,0.5-0.5s0.5,0.2,0.5,0.5C62.5,70.2,60.5,74.4,50,74.4z"/><path fill="#000000" d="M50,86.4c-14.5,0-27.6-8.6-33.4-21.9c-5.6-0.1-7.5-2.1-7.5-8c0-4.7,1.3-6.9,4.5-7.6  C14.1,29.4,30.3,13.6,50,13.6s35.9,15.8,36.4,35.2c3.2,0.7,4.5,2.9,4.5,7.6c0,5.8-1.9,7.8-7.5,8C77.6,77.8,64.5,86.4,50,86.4z   M17.5,63.9C23,76.9,35.8,85.4,50,85.4c14.3,0,27.1-8.5,32.6-21.6c0.1-0.2,0.3-0.4,0.6-0.3c4.6,0,6.7-1.1,6.7-7c0-5-1.5-6.3-4-6.7  c-0.2,0-0.4-0.2-0.4-0.5C85.1,30.2,69.2,14.6,50,14.6S14.9,30.2,14.6,49.3c0,0.2-0.2,0.4-0.4,0.5c-2.6,0.5-4,1.7-4,6.7  c0,5.9,2.1,6.9,6.7,7c0.1,0,0.2,0,0.3,0C17.3,63.6,17.4,63.7,17.5,63.9z"/><text x="0" y="115" fill="#000000" font-size="5px" font-weight="bold" font-family="'Helvetica Neue', Helvetica, Arial-Unicode, Arial, Sans-serif">Created by eivven</text><text x="0" y="120" fill="#000000" font-size="5px" font-weight="bold" font-family="'Helvetica Neue', Helvetica, Arial-Unicode, Arial, Sans-serif">from the Noun Project</text></svg>