<svg xmlns="http://www.w3.org/2000/svg" xmlns:xlink="http://www.w3.org/1999/xlink" version="1.1" x="0px" y="0px" viewBox="0 0 100 125" enable-background="new 0 0 100 100" xml:space="preserve"><path d="M50,48c-6.882,0-14,3.74-14,10c0,2.804,2.121,5,4.829,5c0.06,0,0.112-0.006,0.171-0.006V69  c0,2.757,2.243,5,5,5s5-2.243,5-5v-6.985c2.154,0.065,3.544,0.334,4.787,0.575c1.086,0.211,2.112,0.41,3.384,0.41  C61.834,63,64,60.757,64,58C64,51.74,56.882,48,50,48z M46,72c-1.654,0-3-1.346-3-3v-6.187c0.426-0.068,0.844-0.146,1.269-0.229  c1.226-0.239,2.596-0.505,4.731-0.57V69C49,70.654,47.654,72,46,72z M59.171,61c-1.081,0-1.971-0.173-3.003-0.373  C54.729,60.348,52.937,60,50,60c-2.921,0-4.692,0.345-6.114,0.622C42.847,60.825,41.949,61,40.829,61C38.991,61,38,59.454,38,58  c0-5.518,7.017-8,12-8s12,2.482,12,8C62,59.475,60.942,61,59.171,61z"/><path d="M43,41c0-0.553-0.448-1-1-1s-1,0.447-1,1c0,1.654-1.346,3-3,3s-3-1.346-3-3c0-0.553-0.448-1-1-1  s-1,0.447-1,1c0,2.757,2.243,5,5,5S43,43.757,43,41z"/><path d="M66,40c-0.552,0-1,0.447-1,1c0,1.654-1.346,3-3,3s-3-1.346-3-3c0-0.553-0.448-1-1-1s-1,0.447-1,1  c0,2.757,2.243,5,5,5s5-2.243,5-5C67,40.447,66.552,40,66,40z"/><path d="M59,32h3.586l-4.293,4.293c-0.286,0.286-0.372,0.716-0.217,1.09S58.596,38,59,38h6c0.552,0,1-0.447,1-1  s-0.448-1-1-1h-3.586l4.293-4.293c0.286-0.286,0.372-0.716,0.217-1.09S65.404,30,65,30h-6c-0.552,0-1,0.447-1,1S58.448,32,59,32z"/><path d="M78,33h-5.772c-0.406-0.529-0.83-1.043-1.271-1.542l7.751-7.751c0.286-0.286,0.372-0.716,0.217-1.09  S78.404,22,78,22H67c-0.552,0-1,0.447-1,1s0.448,1,1,1h8.586l-6.008,6.008C64.525,25.059,57.615,22,50,22c-15.439,0-28,12.561-28,28  s12.561,28,28,28s28-12.561,28-28c0-5.517-1.61-10.66-4.375-15H78c0.552,0,1-0.447,1-1S78.552,33,78,33z M69.647,33h-0.233  l0.125-0.125C69.575,32.916,69.611,32.958,69.647,33z M76,50c0,14.337-11.664,26-26,26S24,64.337,24,50s11.664-26,26-26  c7.063,0,13.474,2.835,18.164,7.422l-1.871,1.871c-0.286,0.286-0.372,0.716-0.217,1.09S66.596,35,67,35h4.217  C74.225,39.242,76,44.416,76,50z"/><text x="0" y="115" fill="#000000" font-size="5px" font-weight="bold" font-family="'Helvetica Neue', Helvetica, Arial-Unicode, Arial, Sans-serif">Created by André Luiz Gollo</text><text x="0" y="120" fill="#000000" font-size="5px" font-weight="bold" font-family="'Helvetica Neue', Helvetica, Arial-Unicode, Arial, Sans-serif">from the Noun Project</text></svg>